<?xml version="1.0" encoding="utf-8"?>
<!-- Svg Vector Icons : http://www.onlinewebfonts.com/icon -->
<!DOCTYPE svg PUBLIC "-//W3C//DTD SVG 1.1//EN" "http://www.w3.org/Graphics/SVG/1.1/DTD/svg11.dtd">
<svg version="1.1" xmlns="http://www.w3.org/2000/svg" xmlns:xlink="http://www.w3.org/1999/xlink" x="0px" y="0px" viewBox="0 0 1000 1000" enable-background="new 0 0 1000 1000" xml:space="preserve">
<metadata> Svg Vector Icons : http://www.onlinewebfonts.com/icon </metadata>
<g><g transform="translate(0.000000,511.000000) scale(0.100000,-0.100000)"><path d="M4291.2,4698.4v-311.6h-769.5c-867.7,0-886.9-2.4-999.6-175l-64.7-98.3l-7.2-4230.8c-4.8-3044.2,0-4269.1,19.2-4357.8c31.2-146.2,163-282.8,292.5-306.8c43.1-7.2,1083.4-9.6,2310.7-7.2l2231.7,7.2l83.9,64.7c177.4,134.2,163-258.9,163,4532.8v4300.3l-55.1,81.5c-28.8,43.1-91.1,105.5-134.2,134.2c-81.5,55.1-91.1,55.1-855.7,55.1h-776.7v311.6V5010h-719.1h-719.1V4698.4z M5317.1,4513.8l7.2-103.1h-311.6h-314v107.9v110.3l306.8-7.2l304.4-7.2L5317.1,4513.8z M7162.8-196.4l4.8-4190H5010.3H2853v4190v4192.4l2152.5-2.4l2150.1-2.4L7162.8-196.4z"/><path d="M4878.5,2843.1c-69.5-28.8-117.5-134.2-764.7-1682.7C3265.3-869.9,3342-673.4,3377.9-759.7c14.4-38.3,47.9-81.5,71.9-95.9c24-14.4,366.8-62.3,759.9-103.1c395.5-43.1,723.9-83.9,731.1-91.1c9.6-9.6-100.7-529.8-244.5-1155.4C4552.5-2830.7,4435-3362.9,4435-3384.4c0-21.6,26.4-69.5,57.5-105.4c69.5-83.9,206.1-93.5,275.7-21.6c86.3,91.1,1991.9,3478.1,1991.9,3542.8c0,33.6-24,88.7-52.7,124.6c-52.7,57.5-91.1,64.7-858.1,170.2c-441.1,59.9-810.2,117.5-819.8,127c-9.6,7.2,16.8,525,57.5,1148.2l76.7,1133.8l-59.9,55.1C5027.1,2867.1,4964.8,2881.4,4878.5,2843.1z M4636.4,841.6c-21.6-318.8-31.2-604.1-24-637.6c9.6-33.5,38.4-74.3,69.5-93.5c31.2-19.2,359.6-76.7,795.8-134.2c409.9-57.5,747.9-105.5,752.7-110.3c2.4-2.4-234.9-431.5-527.4-951.6c-294.8-520.2-539.3-939.6-544.1-930c-2.4,9.6,47.9,258.9,115,553.7c67.1,297.2,119.9,575.3,115.1,620.8c-12,148.6-50.3,160.6-822.2,244.5c-381.1,40.8-699.9,79.1-704.7,83.9c-4.8,4.8,172.6,445.9,395.5,978c222.9,532.1,407.5,966,412.3,961.2C4674.7,1424,4660.3,1160.4,4636.4,841.6z"/></g></g>
</svg>