<?xml version="1.0" encoding="utf-8"?>
<!-- Svg Vector Icons : http://www.onlinewebfonts.com/icon -->
<!DOCTYPE svg PUBLIC "-//W3C//DTD SVG 1.1//EN" "http://www.w3.org/Graphics/SVG/1.1/DTD/svg11.dtd">
<svg version="1.1" xmlns="http://www.w3.org/2000/svg" xmlns:xlink="http://www.w3.org/1999/xlink" x="0px" y="0px" viewBox="0 0 1000 1000" enable-background="new 0 0 1000 1000" xml:space="preserve">
<metadata> Svg Vector Icons : http://www.onlinewebfonts.com/icon </metadata>
<g><path d="M916.9,33.3H82.7l0,0l-7.4,0.3l-7.1,1.3l-7.1,1.6l-6.5,2.6L48.1,42L42,45.9l-5.5,4.2l-5.2,4.5l-4.5,5.2l-4.2,5.5l-3.9,6.2l-2.9,6.5l-2.6,6.5l-1.6,7.1l-1.3,7.1L10,106v602.4l0,0l0.4,7.4l1.3,7.4l1.6,6.8l2.6,6.8l2.9,6.5l3.9,5.9l4.2,5.8l4.5,5.2l5.2,4.5l5.5,4.2l6.1,3.5l6.5,3.2l6.5,2.3l7.1,2l7.1,1l7.4,0.6h344.6v132.2H314.5l0,0l-2.6,0.4l-2.6,0.3l-2.6,0.7l-2.6,1l-2.3,0.9l-2.3,1.3l-2,1.6l-2,1.6l-1.6,1.9l-1.6,2.3l-1.3,2l-1,2.3l-1,2.6l-0.6,2.6l-0.4,2.6l-0.3,2.6l0,0l0.3,2.9l0.4,2.6l0.6,2.6l1,2.3l1,2.3l1.3,2.3l1.6,2l1.6,2l2,1.6l2,1.6l2.3,1.3l2.3,1.3l2.6,0.7l2.6,1l2.6,0.3h2.6h370.8l0,0h2.9l2.6-0.3l2.6-1l2.3-0.7l2.3-1.3l2.3-1.3l1.9-1.6l2-1.6l2-2l1.3-2l1.3-2.3l1.3-2.3l1-2.3l0.7-2.6l0.3-2.6v-2.9l0,0v-2.6l-0.3-2.6l-0.7-2.6l-1-2.6l-1.3-2.3l-1.3-2l-1.3-2.3l-2-1.9l-2-1.6l-1.9-1.6l-2.3-1.3l-2.3-0.9l-2.3-1l-2.6-0.7l-2.6-0.3l-2.9-0.4H572.7V781.5h344.2l0,0l7.4-0.6l7.4-1l6.8-2l6.8-2.3l6.5-3.2l5.8-3.5l5.9-4.2l5.2-4.5l4.5-5.2l4.2-5.8l3.5-5.9l3.2-6.5l2.3-6.8l2-6.8l1-7.4l0.6-7.4V106l0,0l-0.6-7.4l-1-7.1l-2-7.1l-2.3-6.5l-3.2-6.5l-3.5-6.2l-4.2-5.5l-4.5-5.2l-5.2-4.5l-5.9-4.2l-5.8-3.8l-6.5-2.9l-6.8-2.6l-6.8-1.6l-7.4-1.3L916.9,33.3L916.9,33.3L916.9,33.3z M82.7,86.3h834.2l0,0h2.3l2,0.4l2,0.6l1.6,0.7l3.6,1.6l2.9,2.6l2.3,2.9l2,3.2l0.7,2l0.6,2l0.4,2v2v483.5H63V106l0,0v-2l0.3-2l0.7-2l0.6-2l1.6-3.2l2.6-2.9l2.9-2.6l3.2-1.6l2-0.7l1.9-0.6l2-0.4H82.7L82.7,86.3L82.7,86.3z M519.7,913.7H480V781.5h39.7V913.7L519.7,913.7z M916.9,728.5H82.7l0,0h-2l-2-0.4l-1.9-0.6l-2-0.7l-3.2-1.9l-2.9-2.3l-2.6-2.9l-1.6-3.5l-0.6-1.6l-0.7-2l-0.3-2v-2.3v-66.2h874v66.2l0,0v2.3l-0.4,2l-0.6,2l-0.7,1.6l-2,3.5l-2.3,2.9l-2.9,2.3l-3.6,1.9l-1.6,0.7l-2,0.6l-2,0.4H916.9L916.9,728.5L916.9,728.5z M916.9,728.5L916.9,728.5z"/></g>
</svg>