<?xml version="1.0"?>
<svg xmlns="http://www.w3.org/2000/svg" id="Layer_1" height="512px" viewBox="0 0 512 512" width="512px" data-name="Layer 1" class=""><g><path d="m205 143.67a6 6 0 0 0 -6 6v96.06a6 6 0 1 0 12 0v-96.06a6 6 0 0 0 -6-6z" data-original="#000000" class="active-path" data-old_color="#000000" fill="#288B45"/><path d="m205 119a6 6 0 0 0 -6 6v7.05a6 6 0 0 0 12 0v-7.05a6 6 0 0 0 -6-6z" data-original="#000000" class="active-path" data-old_color="#000000" fill="#288B45"/><path d="m291 184.5a6 6 0 0 0 -6 6v55.23a6 6 0 1 0 12 0v-55.23a6 6 0 0 0 -6-6z" data-original="#000000" class="active-path" data-old_color="#000000" fill="#288B45"/><path d="m291 163.67a6 6 0 0 0 -6 6v3.33a6 6 0 0 0 12 0v-3.33a6 6 0 0 0 -6-6z" data-original="#000000" class="active-path" data-old_color="#000000" fill="#288B45"/><path d="m291 119a6 6 0 0 0 -6 6v27.05a6 6 0 0 0 12 0v-27.05a6 6 0 0 0 -6-6z" data-original="#000000" class="active-path" data-old_color="#000000" fill="#288B45"/><path d="m347.58 287.52h-12.07v-237.25a35.9 35.9 0 1 0 -71.8 0v237.25h-15.42v-237.25a35.9 35.9 0 0 0 -71.8 0v237.25h-12.07a6 6 0 0 0 -6 6v78.02a20.974 20.974 0 0 0 20.95 20.95h5.84v54.65a20.979 20.979 0 0 0 20.95 20.96h10.35v23.53a6 6 0 0 0 6 6h66.98a6 6 0 0 0 6-6v-23.53h10.35a20.979 20.979 0 0 0 20.95-20.96v-54.65h5.84a20.974 20.974 0 0 0 20.95-20.95v-78.02a6 6 0 0 0 -6-6zm-71.87-237.25a23.9 23.9 0 1 1 47.8 0v237.25h-47.8zm-87.22 0a23.9 23.9 0 1 1 47.8 0v237.25h-47.8zm95 435.36h-54.98v-17.53h54.98zm31.3-38.49a8.965 8.965 0 0 1 -8.95 8.96h-99.68a8.965 8.965 0 0 1 -8.95-8.96v-3.96h117.58zm0-15.96h-117.58v-12.92h117.58zm0-24.92h-117.58v-13.77h117.58zm26.79-61.43h-111.247a6 6 0 0 0 0 12h111.247v14.71a8.96 8.96 0 0 1 -8.95 8.95h-153.26a8.96 8.96 0 0 1 -8.95-8.95v-14.71h33.913a6 6 0 1 0 0-12h-33.913v-45.31h171.16z" data-original="#000000" class="active-path" data-old_color="#000000" fill="#288B45"/></g> </svg>
