<?xml version="1.0" encoding="utf-8"?>
<!-- Svg Vector Icons : http://www.onlinewebfonts.com/icon -->
<!DOCTYPE svg PUBLIC "-//W3C//DTD SVG 1.1//EN" "http://www.w3.org/Graphics/SVG/1.1/DTD/svg11.dtd">
<svg width="64" height="64" version="1.1" xmlns="http://www.w3.org/2000/svg" xmlns:xlink="http://www.w3.org/1999/xlink" x="0px" y="0px" viewBox="0 0 1000 1000" enable-background="new 0 0 1000 1000" xml:space="preserve">
<metadata> Svg Vector Icons : http://www.onlinewebfonts.com/icon </metadata>
<g><path d="M557.2,435.1c-40.9,18.4-131.7-26.7-131.7-26.7c-106.3-63.7,39.9,198.8,39.9,198.8s3,81.9,21.4,92.2C640.3,484.5,598.1,416.7,557.2,435.1L557.2,435.1z M502,638.8c-12.4,0-64.6-156.4-58.4-189.2c41,4.1,78.9,19.5,101.4,7.3C608.4,428.2,516.3,638.8,502,638.8L502,638.8z M629.4,760.2C633.1,521,761.8,429,761.8,286.6C761.8,165.1,678.7,10,504.2,10c-174.4,0-266,148.4-266,277.7c0,145.2,130.7,236.5,130.7,473.9h132.3C501.2,761.7,625.6,760.2,629.4,760.2L629.4,760.2z M395.5,729.8c0-221.7-126.6-306.8-126.6-442.4c0-120.7,82.2-247.3,234.8-247.3c152.6,0,227.4,132.9,227.4,246.3c0,132.9-124.9,220.7-128.2,443.9c-3.3,0-101.8-0.5-101.8-0.5L395.5,729.8L395.5,729.8z M614.7,795.1H385.6c-9,0-16.4,7.3-16.4,16.4s7.3,16.4,16.4,16.4h229.1c9,0,16.4-7.3,16.4-16.4S623.7,795.1,614.7,795.1z M614.7,860.6H385.6c-9,0-16.4,7.3-16.4,16.4s7.3,16.4,16.4,16.4h229.1c9,0,16.4-7.3,16.4-16.4S623.7,860.6,614.7,860.6z M401.7,927c0,0,0,10.9,0,29.5c0,18.5,14.5,33.6,32.5,33.6h132c18,0,32.5-15,32.5-33.6c0-18.5-2-29.5-2-29.5H401.7L401.7,927z"/></g>
</svg>