<?xml version="1.0" encoding="utf-8"?>
<!-- Svg Vector Icons : http://www.onlinewebfonts.com/icon -->
<!DOCTYPE svg PUBLIC "-//W3C//DTD SVG 1.1//EN" "http://www.w3.org/Graphics/SVG/1.1/DTD/svg11.dtd">
<svg width="64" height="64" version="1.1" xmlns="http://www.w3.org/2000/svg" xmlns:xlink="http://www.w3.org/1999/xlink" x="0px" y="0px" viewBox="0 0 1000 1000" enable-background="new 0 0 1000 1000" xml:space="preserve">
<metadata> Svg Vector Icons : http://www.onlinewebfonts.com/icon </metadata>
<g><g transform="translate(0.000000,511.000000) scale(0.100000,-0.100000)"><path d="M3798.2,4976.1c-120.9-52.1-131.4-98-131.4-646.4c0-533.8,8.3-583.8,114.7-631.8c29.2-14.6,114.7-25,187.7-25h135.5v-208.5v-208.5l-108.4-54.2c-323.2-162.6-633.9-437.9-836.1-742.3c-208.5-312.8-327.4-633.9-367-1003c-35.5-308.6-29.2-1126,6.3-1213.6c41.7-95.9,127.2-135.5,294-135.5c131.4,0,135.5-2.1,135.5-52.1c0-50-6.3-52.1-127.2-52.1c-160.6,0-254.4-43.8-300.3-137.6c-29.2-60.5-33.4-129.3-27.1-404.5c6.3-331.6,6.3-333.6,64.6-389.9c50-52.1,77.2-60.5,218.9-68.8c154.3-10.4,160.6-12.5,160.6-62.6c0-50-6.3-52.1-160.6-62.6c-141.8-8.3-168.9-16.7-218.9-68.8c-58.4-56.3-58.4-58.4-64.6-389.9c-6.3-275.2-2.1-344.1,27.1-404.5c45.9-93.8,139.7-137.6,300.3-137.6c120.9,0,127.2-2.1,127.2-52.1c0-50-4.2-52.1-135.5-52.1c-166.8,0-252.3-39.6-294-135.5c-43.8-106.4-43.8-1743.2,2.1-1914.2c68.8-262.7,252.3-437.9,521.3-494.2c70.9-14.6,644.3-20.8,1743.2-16.7l1634.8,6.3l139.7,68.8c158.5,77.2,250.2,171,327.4,337.8l54.2,114.7l6.3,896.6c4.2,619.3,0,921.7-16.7,975.9c-33.3,114.7-118.8,160.6-296.1,160.6c-137.6,0-141.8,2.1-141.8,52.1c0,50,6.3,52.1,127.2,52.1c160.5,0,254.4,43.8,300.3,139.7c29.2,60.5,33.4,127.2,27.1,404.5c-6.3,329.5-6.3,331.6-64.6,387.9c-50.1,52.1-77.1,60.5-218.9,68.8c-154.3,10.4-160.6,12.5-160.6,62.6c0,50,6.3,52.1,158.5,62.6c258.6,16.7,289.8,68.8,289.8,502.5c0,335.7-20.9,410.8-135.5,465c-39.6,18.8-123,33.4-196,33.4c-120.9,0-127.2,2.1-127.2,52.1c0,50,4.2,52.1,135.5,52.1c166.8,0,252.3,39.6,294,135.5c35.4,87.6,41.7,905,6.3,1213.6c-81.3,734-508.8,1369.9-1155.2,1720.3l-156.4,83.4v206.4v206.4h135.5c73,0,158.5,10.4,187.7,25c106.3,48,114.7,98,114.7,631.8c0,550.5-8.4,594.3-135.5,648.5C6096,5022,3898.3,5019.9,3798.2,4976.1z M5897.9,4329.7v-218.9h-896.6h-896.6v218.9v218.9h896.6h896.6V4329.7z M5439.2,3380.9c0-408.7-4.2-402.4,317-558.8c218.9-106.4,287.7-152.2,431.6-287.8c310.7-291.9,492.1-610.9,563-992.5l16.7-100.1H5001.3H3235.2l16.7,100.1c70.9,375.3,250.2,696.5,548.4,977.9c164.7,158.5,300.3,246,544.2,350.3c204.3,89.7,218.9,123,218.9,506.7v296.1h437.9h437.9V3380.9z M6773.7,774.5V545.1h-150.1c-160.6,0-216.9-27.1-264.8-118.9c-37.5-75.1-31.3-681.9,10.4-759c39.6-81.3,141.8-123,289.8-123c108.4,0,114.7-2.1,114.7-52.1c0-50-4.2-52.1-148-52.1c-139.7,0-152.2-4.2-218.9-70.9l-70.9-70.9v-358.7v-358.7l70.9-70.9c66.7-66.7,79.2-70.9,218.9-70.9c143.9,0,148-2.1,148-52.1c0-50.1-6.3-52.1-114.7-52.1c-148,0-250.2-41.7-289.8-123c-41.7-79.2-48-677.7-8.3-763.2c35.4-79.2,120.9-114.7,277.3-114.7h135.5v-773.6v-773.6l-60.5-60.5l-60.4-60.5H5001.3H3349.9l-60.5,60.5l-60.5,60.5v773.6v773.6h135.5c273.2,0,302.3,45.9,302.3,490c0,369.1-16.7,431.6-135.5,481.7c-39.6,16.7-123,29.2-187.7,29.2c-108.4,0-114.7,2.1-114.7,52.1c0,50,4.2,52.1,148.1,52.1c139.7,0,152.2,4.2,218.9,70.9l70.9,70.9v358.7v358.7l-70.9,70.9c-66.7,66.7-79.2,70.9-218.9,70.9c-143.9,0-148.1,2.1-148.1,52.1c0,50,6.3,52.1,114.7,52.1c148,0,250.2,41.7,289.8,123c41.7,79.2,48,677.7,8.3,763.2c-35.4,79.2-120.9,114.7-277.3,114.7h-135.5v229.4v229.4h1772.4h1772.4V774.5z"/><path d="M4844.9,144.8c-98-85.5-314.9-362.8-427.5-548.4c-171-279.4-273.2-563-302.3-834.1c-37.5-369.1,171-725.6,529.6-902.9c148-73,166.8-77.1,356.6-77.1c189.8,0,208.5,4.2,356.6,77.1c281.5,139.7,469.2,385.8,521.3,679.8c18.8,104.3,16.7,168.9-10.4,327.4c-56.3,342-221,683.9-502.5,1044.7c-185.6,235.6-262.7,300.3-364.9,300.3C4938.8,211.5,4901.2,194.8,4844.9,144.8z M5132.7-522.5c208.5-314.9,306.5-569.2,306.5-792.4c0-210.6-131.4-389.9-327.4-446.2c-100.1-29.2-120.9-29.2-221,0c-116.8,33.4-233.5,135.5-294,256.5c-68.8,137.6-33.4,402.4,91.7,667.3c73,156.4,285.7,485.8,312.8,485.8C5011.8-351.5,5070.1-428.7,5132.7-522.5z"/></g></g>
</svg>