<?xml version="1.0"?>
<svg xmlns="http://www.w3.org/2000/svg" id="Layer_1" enable-background="new 0 0 512 512" height="512px" viewBox="0 0 512 512" width="512px"><g><g><path d="m342.5 225.4-52.9-102.6v-45.5c0-3.3-2.7-6-6-6h-11.4v-55.3c0-3.3-2.7-6-6-6-1.6 0-3.1.6-4.2 1.8l-20.4 20.4c-1.1 1.1-1.8 2.7-1.8 4.2v34.9h-14.6c-3.3 0-6 2.7-6 6v45.6l-49.7 102.6c-.4.8-.6 1.7-.6 2.6v247.4c0 14.6 11.8 26.4 26.4 26.4h121.4c14.6 0 26.4-11.8 26.4-26.4v-247.3c.1-1-.2-1.9-.6-2.8zm-90.7-186.5 8.5-8.4v40.9h-8.5zm-20.6 44.4h14.6 31.8v34.9h-46.4zm-2.3 47h51l47.9 92.9h-143.9zm102.3 345.3c0 8-6.5 14.4-14.4 14.4h-121.5c-8 0-14.4-6.5-14.4-14.4v-45.6h150.3zm0-57.6h-150.4v-182.9h150.3v182.9z" data-original="#000000" class="active-path" data-old_color="#000000" fill="#288B45"/><path d="m227.2 349.6c-3.3 0-6 2.7-6 6s2.7 6 6 6h57.5c3.3 0 6-2.7 6-6s-2.7-6-6-6z" data-original="#000000" class="active-path" data-old_color="#000000" fill="#288B45"/><path d="m256 329.6c20.3 0 36.7-16.4 36.7-36.7s-16.4-36.7-36.7-36.7-36.7 16.4-36.7 36.7c.1 20.2 16.5 36.6 36.7 36.7zm0-61.4c13.6 0 24.7 11 24.7 24.7s-11 24.7-24.7 24.7c-13.6 0-24.7-11-24.7-24.7 0-13.6 11.1-24.7 24.7-24.7z" data-original="#000000" class="active-path" data-old_color="#000000" fill="#288B45"/><path d="m204.9 384.1h102.2c3.3 0 6-2.7 6-6s-2.7-6-6-6h-102.2c-3.3 0-6 2.7-6 6s2.7 6 6 6z" data-original="#000000" class="active-path" data-old_color="#000000" fill="#288B45"/></g></g> </svg>
